<svg xmlns="http://www.w3.org/2000/svg" viewBox="0 0 64 64" role="img" aria-label="!>@>:0 ?@8=5A;0">
  <rect width="64" height="64" rx="14" fill="#FFE8D6"/>
  <path fill="#3F3F32" d="M14 38c6-10 14-16 23-18 3 7 5 12 5 18-7 1-15 2-22 4 0-2-2-3-6-4z"/>
  <path fill="#3F3F32" d="M36 20c4-1 9 1 12 5-5 2-9 3-12 3v-8z"/>
  <circle cx="41" cy="24" r="1.6" fill="#FFE8D6"/>
  <path fill="#C62828" d="M28 44c6-1 10 2 12 6-4 1-8 1-12 0-1-2-1-4 0-6z"/>
  <path fill="#E53935" d="M32 42c1.5 2 2 4.5 1.5 7H30c.2-2.4.7-4.8 2-7z"/>
  <path fill="#B71C1C" d="M34 48c3 .4 5.5 1.8 7 4.2-2.2.3-4.5.2-7-.2-.4-1.3-.4-2.7 0-4z"/>
</svg>
